<mxfile host="app.diagrams.net" modified="2024-04-27T07:46:18.053Z" agent="Mozilla/5.0 (Windows NT 10.0; Win64; x64) AppleWebKit/537.36 (KHTML, like Gecko) Chrome/124.0.0.0 Safari/537.36 Edg/124.0.0.0" etag="1NM5mqTNMGbQbOQcXKJ0" version="24.3.1" type="github">
  <diagram name="第 1 页" id="vmPLHQrTiqvJXLSUL57_">
    <mxGraphModel dx="1402" dy="569" grid="0" gridSize="10" guides="1" tooltips="1" connect="1" arrows="1" fold="1" page="0" pageScale="1" pageWidth="827" pageHeight="1169" math="0" shadow="0">
      <root>
        <mxCell id="0" />
        <mxCell id="1" parent="0" />
        <mxCell id="mYJCuAN_j3ZSUV2BkIeG-1" value="&lt;h3 style=&quot;line-height: 30%;&quot;&gt;&lt;span style=&quot;font-weight: normal;&quot;&gt;数&lt;/span&gt;&lt;/h3&gt;&lt;h3 style=&quot;line-height: 30%;&quot;&gt;&lt;span style=&quot;font-weight: normal;&quot;&gt;据&lt;/span&gt;&lt;/h3&gt;&lt;h3 style=&quot;line-height: 30%;&quot;&gt;&lt;span style=&quot;font-weight: normal;&quot;&gt;收&lt;/span&gt;&lt;/h3&gt;&lt;h3 style=&quot;line-height: 30%;&quot;&gt;&lt;span style=&quot;font-weight: normal;&quot;&gt;集&lt;/span&gt;&lt;/h3&gt;" style="rounded=1;whiteSpace=wrap;html=1;direction=north;align=center;" vertex="1" parent="1">
          <mxGeometry x="-185" y="150" width="65" height="156" as="geometry" />
        </mxCell>
        <mxCell id="mYJCuAN_j3ZSUV2BkIeG-3" value="" style="endArrow=classic;html=1;rounded=0;exitX=0.5;exitY=1;exitDx=0;exitDy=0;entryX=0.5;entryY=1;entryDx=0;entryDy=0;" edge="1" parent="1" source="mYJCuAN_j3ZSUV2BkIeG-1" target="mYJCuAN_j3ZSUV2BkIeG-6">
          <mxGeometry relative="1" as="geometry">
            <mxPoint x="-120" y="227.5" as="sourcePoint" />
            <mxPoint x="-70" y="228" as="targetPoint" />
            <Array as="points" />
          </mxGeometry>
        </mxCell>
        <mxCell id="mYJCuAN_j3ZSUV2BkIeG-6" value="&lt;h3 style=&quot;line-height: 30%;&quot;&gt;&lt;span style=&quot;font-weight: normal;&quot;&gt;数&lt;/span&gt;&lt;/h3&gt;&lt;h3 style=&quot;line-height: 30%;&quot;&gt;&lt;span style=&quot;font-weight: normal;&quot;&gt;据&lt;/span&gt;&lt;/h3&gt;&lt;h3 style=&quot;line-height: 30%;&quot;&gt;&lt;span style=&quot;font-weight: normal;&quot;&gt;预&lt;/span&gt;&lt;/h3&gt;&lt;h3 style=&quot;line-height: 30%;&quot;&gt;&lt;span style=&quot;font-weight: normal;&quot;&gt;处&lt;/span&gt;&lt;/h3&gt;&lt;h3 style=&quot;line-height: 30%;&quot;&gt;&lt;span style=&quot;font-weight: normal;&quot;&gt;理&lt;/span&gt;&lt;/h3&gt;" style="rounded=1;whiteSpace=wrap;html=1;direction=south;align=center;verticalAlign=middle;labelPosition=center;verticalLabelPosition=middle;" vertex="1" parent="1">
          <mxGeometry x="-70" y="150" width="65" height="156" as="geometry" />
        </mxCell>
        <mxCell id="mYJCuAN_j3ZSUV2BkIeG-7" value="" style="endArrow=classic;html=1;rounded=0;entryX=0.5;entryY=1;entryDx=0;entryDy=0;exitX=0.5;exitY=0;exitDx=0;exitDy=0;" edge="1" parent="1" source="mYJCuAN_j3ZSUV2BkIeG-6" target="mYJCuAN_j3ZSUV2BkIeG-9">
          <mxGeometry relative="1" as="geometry">
            <mxPoint x="-5" y="226.25" as="sourcePoint" />
            <mxPoint x="47" y="226" as="targetPoint" />
          </mxGeometry>
        </mxCell>
        <mxCell id="mYJCuAN_j3ZSUV2BkIeG-9" value="&lt;h3 style=&quot;line-height: 30%;&quot;&gt;&lt;span style=&quot;font-weight: 400;&quot;&gt;分&lt;/span&gt;&lt;/h3&gt;&lt;h3 style=&quot;line-height: 30%;&quot;&gt;&lt;span style=&quot;font-weight: 400;&quot;&gt;类&lt;/span&gt;&lt;/h3&gt;&lt;h3 style=&quot;line-height: 30%;&quot;&gt;&lt;span style=&quot;font-weight: 400;&quot;&gt;算&lt;/span&gt;&lt;/h3&gt;&lt;h3 style=&quot;line-height: 30%;&quot;&gt;&lt;span style=&quot;font-weight: 400;&quot;&gt;法&lt;/span&gt;&lt;/h3&gt;" style="rounded=1;whiteSpace=wrap;html=1;direction=south;align=center;verticalAlign=middle;labelPosition=center;verticalLabelPosition=middle;" vertex="1" parent="1">
          <mxGeometry x="45" y="150" width="65" height="156" as="geometry" />
        </mxCell>
        <mxCell id="mYJCuAN_j3ZSUV2BkIeG-11" value="&lt;h3 style=&quot;line-height: 30%;&quot;&gt;&lt;span style=&quot;font-weight: normal;&quot;&gt;数&lt;/span&gt;&lt;/h3&gt;&lt;h3 style=&quot;line-height: 30%;&quot;&gt;&lt;span style=&quot;font-weight: normal;&quot;&gt;据&lt;/span&gt;&lt;/h3&gt;&lt;h3 style=&quot;line-height: 30%;&quot;&gt;&lt;span style=&quot;font-weight: normal;&quot;&gt;收&lt;/span&gt;&lt;/h3&gt;&lt;h3 style=&quot;line-height: 30%;&quot;&gt;&lt;span style=&quot;font-weight: normal;&quot;&gt;集&lt;/span&gt;&lt;/h3&gt;" style="rounded=1;whiteSpace=wrap;html=1;direction=north;align=center;" vertex="1" parent="1">
          <mxGeometry x="-300" y="150" width="65" height="156" as="geometry" />
        </mxCell>
        <mxCell id="mYJCuAN_j3ZSUV2BkIeG-12" value="" style="endArrow=classic;html=1;rounded=0;entryX=0.5;entryY=0;entryDx=0;entryDy=0;exitX=0.5;exitY=1;exitDx=0;exitDy=0;" edge="1" parent="1" source="mYJCuAN_j3ZSUV2BkIeG-11" target="mYJCuAN_j3ZSUV2BkIeG-1">
          <mxGeometry relative="1" as="geometry">
            <mxPoint x="-235" y="228" as="sourcePoint" />
            <mxPoint x="-185" y="228" as="targetPoint" />
            <Array as="points" />
          </mxGeometry>
        </mxCell>
        <mxCell id="mYJCuAN_j3ZSUV2BkIeG-16" value="" style="html=1;shadow=0;dashed=0;align=center;verticalAlign=middle;shape=mxgraph.arrows2.arrow;dy=0.6;dx=40;direction=south;notch=0;" vertex="1" parent="1">
          <mxGeometry x="-63.75" y="306" width="52.5" height="90" as="geometry" />
        </mxCell>
        <mxCell id="mYJCuAN_j3ZSUV2BkIeG-18" value="" style="rounded=0;whiteSpace=wrap;html=1;" vertex="1" parent="1">
          <mxGeometry x="-304" y="391" width="414" height="154" as="geometry" />
        </mxCell>
        <mxCell id="mYJCuAN_j3ZSUV2BkIeG-20" value="&lt;font style=&quot;font-size: 13px;&quot;&gt;中&lt;/font&gt;&lt;div style=&quot;font-size: 13px;&quot;&gt;&lt;font style=&quot;font-size: 13px;&quot;&gt;文&lt;/font&gt;&lt;/div&gt;&lt;div style=&quot;font-size: 13px;&quot;&gt;&lt;font style=&quot;font-size: 13px;&quot;&gt;分&lt;/font&gt;&lt;/div&gt;&lt;div style=&quot;font-size: 13px;&quot;&gt;&lt;font style=&quot;font-size: 13px;&quot;&gt;词&lt;/font&gt;&lt;/div&gt;" style="ellipse;whiteSpace=wrap;html=1;direction=south;" vertex="1" parent="1">
          <mxGeometry x="-275" y="404" width="49" height="113" as="geometry" />
        </mxCell>
        <mxCell id="mYJCuAN_j3ZSUV2BkIeG-24" value="" style="endArrow=classic;html=1;rounded=0;" edge="1" parent="1">
          <mxGeometry relative="1" as="geometry">
            <mxPoint x="-225" y="460" as="sourcePoint" />
            <mxPoint x="-180" y="460" as="targetPoint" />
          </mxGeometry>
        </mxCell>
        <mxCell id="mYJCuAN_j3ZSUV2BkIeG-27" value="&lt;span style=&quot;font-size: 13px;&quot;&gt;数&lt;/span&gt;&lt;div&gt;&lt;span style=&quot;font-size: 13px;&quot;&gt;据&lt;/span&gt;&lt;/div&gt;&lt;div&gt;&lt;span style=&quot;font-size: 13px;&quot;&gt;清&lt;/span&gt;&lt;/div&gt;&lt;div&gt;&lt;span style=&quot;font-size: 13px;&quot;&gt;洗&lt;/span&gt;&lt;/div&gt;" style="ellipse;whiteSpace=wrap;html=1;direction=south;" vertex="1" parent="1">
          <mxGeometry x="-180" y="404" width="49" height="113" as="geometry" />
        </mxCell>
        <mxCell id="mYJCuAN_j3ZSUV2BkIeG-28" value="&lt;span style=&quot;font-size: 13px;&quot;&gt;特&lt;/span&gt;&lt;div&gt;&lt;span style=&quot;font-size: 13px;&quot;&gt;征&lt;/span&gt;&lt;/div&gt;&lt;div&gt;&lt;span style=&quot;font-size: 13px;&quot;&gt;提&lt;/span&gt;&lt;/div&gt;&lt;div&gt;&lt;span style=&quot;font-size: 13px;&quot;&gt;取&lt;/span&gt;&lt;/div&gt;" style="ellipse;whiteSpace=wrap;html=1;direction=south;" vertex="1" parent="1">
          <mxGeometry x="-85" y="404" width="49" height="113" as="geometry" />
        </mxCell>
        <mxCell id="mYJCuAN_j3ZSUV2BkIeG-29" value="" style="endArrow=classic;html=1;rounded=0;" edge="1" parent="1">
          <mxGeometry relative="1" as="geometry">
            <mxPoint x="-130" y="460" as="sourcePoint" />
            <mxPoint x="-85" y="460" as="targetPoint" />
          </mxGeometry>
        </mxCell>
        <mxCell id="mYJCuAN_j3ZSUV2BkIeG-36" value="" style="endArrow=classic;html=1;rounded=0;" edge="1" parent="1">
          <mxGeometry relative="1" as="geometry">
            <mxPoint x="-36" y="460" as="sourcePoint" />
            <mxPoint x="8" y="460" as="targetPoint" />
          </mxGeometry>
        </mxCell>
        <mxCell id="mYJCuAN_j3ZSUV2BkIeG-38" value="&lt;span style=&quot;font-size: 13px;&quot;&gt;权&lt;/span&gt;&lt;div&gt;&lt;span style=&quot;font-size: 13px;&quot;&gt;重&lt;/span&gt;&lt;/div&gt;&lt;div&gt;&lt;span style=&quot;font-size: 13px;&quot;&gt;计&lt;/span&gt;&lt;/div&gt;&lt;div&gt;&lt;span style=&quot;font-size: 13px;&quot;&gt;算&lt;/span&gt;&lt;/div&gt;" style="ellipse;whiteSpace=wrap;html=1;direction=south;" vertex="1" parent="1">
          <mxGeometry x="8" y="404" width="49" height="113" as="geometry" />
        </mxCell>
        <mxCell id="mYJCuAN_j3ZSUV2BkIeG-42" value="去除停用词、标点符号" style="text;strokeColor=none;align=center;fillColor=none;html=1;verticalAlign=middle;whiteSpace=wrap;rounded=0;" vertex="1" parent="1">
          <mxGeometry x="-189" y="515" width="75" height="33" as="geometry" />
        </mxCell>
      </root>
    </mxGraphModel>
  </diagram>
</mxfile>
